<?xml version="1.0" encoding="utf-8"?>
<!-- Generator: Adobe Illustrator 15.0.0, SVG Export Plug-In . SVG Version: 6.00 Build 0)  -->
<!DOCTYPE svg PUBLIC "-//W3C//DTD SVG 1.1//EN" "http://www.w3.org/Graphics/SVG/1.1/DTD/svg11.dtd">
<svg version="1.1" id="Layer_1" xmlns="http://www.w3.org/2000/svg" xmlns:xlink="http://www.w3.org/1999/xlink" x="0px" y="0px"
	 width="20px" height="20px" viewBox="0 0 20 20" enable-background="new 0 0 20 20" xml:space="preserve">
<g>
	<path fill="#3C96D2" d="M19,9.997c0,5.355-4.03,9.695-9,9.695c-4.971,0-9-4.34-9-9.695c0-5.352,4.029-9.689,9-9.689
		C14.97,0.308,19,4.646,19,9.997z"/>
	<ellipse fill="#68AFE0" cx="9.743" cy="8.152" rx="7.029" ry="7.57"/>
	<ellipse fill="#8ECAEE" cx="9.485" cy="6.307" rx="5.058" ry="5.444"/>
</g>
<circle fill="#FFFFFF" cx="14.747" cy="9.599" r="0.779"/>
<path fill="#FFFFFF" d="M17.884,13.089c0,0.432-0.347,0.781-0.777,0.781c-0.429,0-0.777-0.35-0.777-0.781
	c0-0.428,0.349-0.777,0.777-0.777C17.537,12.312,17.884,12.661,17.884,13.089z"/>
<circle fill="#FFFFFF" cx="7.257" cy="4.362" r="0.778"/>
<circle fill="#FFFFFF" cx="10.882" cy="15.667" r="0.779"/>
<path fill="none" stroke="#FFFFFF" stroke-width="0.3973" d="M2.037,14.517C2.189,14.817,5.504,1.89,12.696,0.576"/>
<path fill="none" stroke="#FFFFFF" stroke-width="0.3973" d="M2.867,15.911c0.496,0.633,11.48,0.783,16.011-4.32"/>
<path fill="none" stroke="#FFFFFF" stroke-width="0.3973" d="M6.334,18.851c2.572,1.631,12.078-12.146,9.13-16.554"/>
<path fill="none" stroke="#FFFFFF" stroke-width="0.3973" d="M4.428,2.297c-1.641,1.114,11.07,3.558,13.28,12.706"/>
</svg>
